<svg xmlns="http://www.w3.org/2000/svg" width="319.346" height="369.756" viewBox="0 0 319.346 369.756">
  <g id="Group_1" data-name="Group 1" transform="translate(-911.894 -464.574)">
    <path id="Path_2" data-name="Path 2" d="M1007.142,496.577l-55.115,104.9L936.915,587.25l70.227-122.676,76.45,122.676-14.223,14.223Z" transform="translate(62.095)" fill="#1C7CA7"/>
    <rect id="Rectangle_1" data-name="Rectangle 1" width="19.853" height="18.668" transform="translate(1074.275 571.249)" fill="#1C7CA7"/>
    <rect id="Rectangle_2" data-name="Rectangle 2" width="19.853" height="18.668" transform="translate(1048.199 571.249)" fill="#1C7CA7"/>
    <rect id="Rectangle_3" data-name="Rectangle 3" width="19.853" height="18.668" transform="translate(1048.199 597.621)" fill="#1C7CA7"/>
    <rect id="Rectangle_4" data-name="Rectangle 4" width="19.853" height="18.668" transform="translate(1074.275 597.621)" fill="#1C7CA7"/>
    <path id="Path_3" data-name="Path 3" d="M1170.576,496.059s56.463,50.687,59.642,61.345-2.075,87.416-2.075,87.416c-7,27.046-41.509,74.018-76.824,92.44-15.657,8.168-40.116,17.088-61.337,19.557a183.437,183.437,0,0,1-41.339-.146s-24.741-1.333-69.189-26.52c-45.412-21.538-64-88.9-65.784-105.786s-1.776-68.451-1.776-68.451l64-61.042,57.78,59.858V680.96c42.672,21.928,74.377,0,74.377,0V556.505l59.559-61.634Zm-4.888,25.779-41.112,43.779-2,105.786s22.892-12.444,33.115-51.334c3.729-14.188,3-23.968,3.036-30.671.07-11.667-1.48-14-1.48-14l-14.223-23.557,14-14.891,20.222,31.335c1.292.665,1.372,5.7,1.779,11.187a199.091,199.091,0,0,1-2.779,47.93c-1.793,9.234-5.839,16.517-8.112,21.559-4.533,10.055-12.813,23.011-23.777,30.963-10.3,7.468-20.385,13.29-21.782,14.6-3.04,2.845-38.686,22.025-87.562,8.443-48.3-13.419-68.106-64.785-71.783-74.45-3.4-8.938-6.09-46.446,0-58.225l19.334-32.446,15.114,14.223c1.487.265-2.256,6.734-6.741,13.259a58.153,58.153,0,0,0-5.78,9.557c-2.712,6.27-5.027,51.157,12.743,77.563,2.893,4.3,6.413,7.573,10,11.183,2.367,2.385,4.443,5.494,7.778,6.89l.668-104.229-42.672-46.669-41.112,43.114,1.445,58c-1.173.975,15.333,105.73,117.9,117.787,100.51,11.817,148.012-86.079,148.012-86.079l8.224-26.74V565.729Z" transform="translate(0 75.191)" fill="#1C7CA7"/>
    <path id="Path_4" data-name="Path 4" d="M1170.576,496.566s56.463,50.687,59.642,61.345-2.075,87.416-2.075,87.416c-7,27.046-41.509,74.018-76.824,92.44-15.657,8.168-40.029,18.011-61.337,19.557-13.732,1-36.931,1.483-67.219-6.041-13.8-3.429-28.038-10.39-42.422-18.54-53.333-34.173-66.264-92.586-66.672-107.871-.453-16.977-1.776-68.451-1.776-68.451l64-61.042,57.78,59.858v126.23c42.672,21.928,74.377,0,74.377,0V557.013l59.559-61.634Zm-4.888,25.779-41.112,43.779-2,105.786s22.892-12.444,33.115-51.335c3.729-14.188,3-23.968,3.036-30.67.07-11.667-1.48-14-1.48-14l-14.223-23.557,14-14.891,20.222,31.336c1.292.665,1.372,5.7,1.779,11.187a199.091,199.091,0,0,1-2.779,47.93c-1.793,9.234-5.839,16.517-8.112,21.559-4.533,10.055-12.813,23.011-23.777,30.963-10.3,7.468-20.385,13.286-21.782,14.6-3.04,2.845-38.686,22.026-87.562,8.443-48.3-13.419-68.106-64.785-71.783-74.45-3.4-8.938-6.09-46.446,0-58.225l19.334-32.446,15.114,14.223c1.487.265-2.256,6.734-6.741,13.258a58.178,58.178,0,0,0-5.78,9.557c-2.712,6.271-5.027,51.157,12.743,77.563,2.893,4.3,6.413,7.573,10,11.183,2.367,2.385,4.443,5.494,7.778,6.89l.668-104.229-42.672-46.669-41.112,43.114,1.445,58c-1.173.975,15.333,105.73,117.9,117.787,100.51,11.817,148.012-86.079,148.012-86.079l8.224-26.74V566.236Z" transform="translate(0 76.449)" fill="#1C7CA7"/>
    <path id="Path_5" data-name="Path 5" d="M990.149,560.319" transform="translate(194.208 237.612)" fill="#1C7CA7"/>
    <path id="Path_6" data-name="Path 6" d="M925.553,515.255" transform="translate(33.898 125.776)" fill="#1C7CA7"/>
    <path id="Path_7" data-name="Path 7" d="M990.149,560.319" transform="translate(194.208 237.612)" fill="#1C7CA7"/>
  </g>
</svg>



